<?xml version="1.0" standalone="no"?>
<!DOCTYPE svg PUBLIC "-//W3C//DTD SVG 20010904//EN"
 "http://www.w3.org/TR/2001/REC-SVG-20010904/DTD/svg10.dtd">
<svg version="1.0" xmlns="http://www.w3.org/2000/svg"
 width="378.000000pt" height="64.000000pt" viewBox="0 0 378.000000 64.000000"
 preserveAspectRatio="xMidYMid meet">

<g transform="translate(0.000000,64.000000) scale(0.100000,-0.100000)"
fill="#000000" stroke="none">
<path d="M251 630 c-121 -25 -226 -140 -245 -267 l-6 -43 94 0 94 0 6 -33 c14
-76 113 -120 187 -83 33 17 33 16 67 -18 l34 -34 -48 -28 c-69 -41 -158 -41
-227 0 l-49 28 -29 -28 c-27 -26 -28 -29 -12 -46 9 -10 41 -30 71 -45 78 -38
186 -38 265 0 56 28 137 99 137 122 0 6 -30 46 -67 88 l-68 77 -132 0 -133 0
0 26 c0 17 14 40 39 65 34 35 44 39 88 39 29 0 58 -7 72 -16 22 -16 24 -15 87
47 60 59 63 64 47 81 -47 53 -182 86 -272 68z"/>
<path d="M875 480 c-75 -37 -114 -138 -86 -222 14 -42 65 -92 110 -107 71 -23
165 -7 215 37 26 24 56 91 56 130 l0 32 -100 0 -100 0 0 -40 c0 -38 1 -40 33
-40 l32 -1 -24 -20 c-69 -57 -141 62 -76 126 27 28 51 31 80 12 17 -11 29 -10
79 8 l60 22 -27 27 c-15 15 -43 34 -62 42 -50 21 -142 18 -190 -6z"/>
<path d="M1305 483 c-104 -54 -137 -182 -70 -269 79 -104 267 -98 330 10 54
91 20 212 -71 256 -50 25 -146 26 -189 3z m137 -110 c33 -37 30 -91 -6 -115
-20 -13 -69 -8 -88 9 -24 22 -24 77 2 103 25 25 72 26 92 3z"/>
<path d="M1733 480 c-35 -21 -47 -39 -58 -87 l-7 -33 59 0 c48 0 60 4 71 21
17 27 56 22 60 -8 3 -24 -49 -82 -162 -181 l-60 -52 177 0 177 0 0 55 0 56
-67 -6 c-59 -4 -65 -3 -43 7 88 44 121 111 89 181 -28 62 -167 90 -236 47z"/>
<path d="M2190 320 l0 -180 65 0 65 0 0 55 0 55 45 0 c52 0 96 19 119 52 23
33 21 109 -5 142 -36 46 -69 56 -184 56 l-105 0 0 -180z m184 64 c8 -21 -11
-44 -35 -44 -14 0 -19 7 -19 30 0 25 4 30 24 30 13 0 27 -7 30 -16z"/>
<path d="M2672 384 c-12 -8 -22 -10 -22 -5 0 7 -26 11 -65 11 l-65 0 0 -125 0
-125 65 0 65 0 0 64 c0 71 13 91 55 84 24 -5 25 -4 25 53 0 65 -13 75 -58 43z"/>
<path d="M2833 381 c-48 -23 -73 -62 -73 -119 0 -73 61 -122 150 -122 98 0
153 49 152 134 -2 101 -120 156 -229 107z m106 -100 c15 -27 -9 -56 -37 -47
-21 7 -31 44 -15 59 13 13 42 7 52 -12z"/>
<path d="M3106 378 c4 -7 24 -34 45 -59 l38 -46 -55 -66 -56 -67 76 0 c72 0
77 1 88 25 l12 26 20 -26 c19 -24 26 -26 89 -23 l67 3 -51 63 -51 63 47 60 46
59 -71 0 c-63 0 -72 -2 -77 -20 -3 -11 -9 -20 -13 -20 -5 0 -12 9 -15 20 -6
17 -15 20 -76 20 -53 0 -68 -3 -63 -12z"/>
<path d="M3485 278 l54 -111 -30 -58 c-16 -32 -29 -61 -29 -64 0 -3 28 -5 63
-5 l63 0 73 162 c40 90 76 169 78 176 4 9 -12 12 -60 12 l-65 0 -13 -60 c-7
-33 -16 -60 -20 -60 -3 0 -12 27 -19 60 l-13 60 -68 0 -68 0 54 -112z"/>
</g>
</svg>
